# xmcd
#
# Track frame offsets:
#	150
#	12692
#	23080
#	35087
#	44625
#	53937
#	65695
#	74417
#	82290
#	94400
#
# Disc length: 1396 seconds
#
# Revision: 0
# Processed by: cddbd v1.4PL0 Copyright (c) Steve Scherf et al.
# Submitted via: dBpowerAMP V4.0
#
DISCID=9a05720a
DTITLE=Johnny Cash - I Walk The Line
DYEAR=1900
DGENRE=
TTITLE0=1-I Walk The Line
TTITLE1=2-Get Rhythm
TTITLE2=3-So Doggone Lonsome
TTITLE3=4-Luther's Boogie
TTITLE4=5-Two Timin' Woman
TTITLE5=6-Big River
TTITLE6=7-Country Boy
TTITLE7=8-Come In Stranger
TTITLE8=9-Thanks A Lot
TTITLE9=The Ways Of A Woman In Love
EXTD=\n\n\n                                                                                      Les
EXTT0=
EXTT1=
EXTT2=
EXTT3=
EXTT4=
EXTT5=
EXTT6=
EXTT7=
EXTT8=
EXTT9=
PLAYORDER=
